REM DIRINDEX 1\2,1\3,1\4,1\5,1\6,1\7,1\8
REM DIRNAME folder01,folder02,folder03,folder04,folder05,folder06,folder07,folder08
TITLE ""
FILE "008 でる文68.mp3" MP3
  TRACK 01 AUDIO
    TITLE "8:cjc150_3240"
    INDEX 01 00:00:00
  TRACK 02 AUDIO
    TITLE "0:"
    INDEX 01 00:01:64
  TRACK 03 AUDIO
    TITLE "2:cjc150_3241"
    INDEX 01 00:02:42
  TRACK 04 AUDIO
    TITLE "0:"
    INDEX 01 00:09:71
  TRACK 05 AUDIO
    TITLE "8:cjc150_3242"
    INDEX 01 00:11:11
  TRACK 06 AUDIO
    TITLE "0:"
    INDEX 01 00:13:63
  TRACK 07 AUDIO
    TITLE "3:cjc150_3243"
    INDEX 01 00:14:41
  TRACK 08 AUDIO
    TITLE "3:cjc150_3244"
    INDEX 01 00:16:00
  TRACK 09 AUDIO
    TITLE "3:cjc150_3245"
    INDEX 01 00:17:27
  TRACK 10 AUDIO
    TITLE "3:cjc150_3246"
    INDEX 01 00:19:24
  TRACK 11 AUDIO
    TITLE "3:cjc150_3247"
    INDEX 01 00:21:25
  TRACK 12 AUDIO
    TITLE "3:cjc150_3248"
    INDEX 01 00:23:18
  TRACK 13 AUDIO
    TITLE "3:cjc150_3249"
    INDEX 01 00:25:09
  TRACK 14 AUDIO
    TITLE "3:cjc150_3250"
    INDEX 01 00:26:73
  TRACK 15 AUDIO
    TITLE "3:cjc150_3251"
    INDEX 01 00:28:60
  TRACK 16 AUDIO
    TITLE "3:cjc150_3252"
    INDEX 01 00:30:57
  TRACK 17 AUDIO
    TITLE "3:cjc150_3253"
    INDEX 01 00:32:48
  TRACK 18 AUDIO
    TITLE "3:cjc150_3254"
    INDEX 01 00:34:16
  TRACK 19 AUDIO
    TITLE "8:cjc150_3255"
    INDEX 01 00:35:57
  TRACK 20 AUDIO
    TITLE "0:"
    INDEX 01 00:38:33
  TRACK 21 AUDIO
    TITLE "4:cjc150_3256"
    INDEX 01 00:39:15
  TRACK 22 AUDIO
    TITLE "4:cjc150_3257"
    INDEX 01 00:41:53
  TRACK 23 AUDIO
    TITLE "4:cjc150_3258"
    INDEX 01 00:44:56
  TRACK 24 AUDIO
    TITLE "4:cjc150_3259"
    INDEX 01 00:46:45
  TRACK 25 AUDIO
    TITLE "4:cjc150_3260"
    INDEX 01 00:48:73
  TRACK 26 AUDIO
    TITLE "4:cjc150_3261"
    INDEX 01 00:52:71
  TRACK 27 AUDIO
    TITLE "8:cjc150_3262"
    INDEX 01 00:57:33
  TRACK 28 AUDIO
    TITLE "0:"
    INDEX 01 01:00:27
  TRACK 29 AUDIO
    TITLE "5:cjc150_3263"
    INDEX 01 01:01:09
  TRACK 30 AUDIO
    TITLE "5:cjc150_3264"
    INDEX 01 01:02:55
  TRACK 31 AUDIO
    TITLE "5:cjc150_3265"
    INDEX 01 01:04:74
  TRACK 32 AUDIO
    TITLE "5:cjc150_3266"
    INDEX 01 01:06:36
  TRACK 33 AUDIO
    TITLE "5:cjc150_3267"
    INDEX 01 01:07:63
  TRACK 34 AUDIO
    TITLE "5:cjc150_3268"
    INDEX 01 01:09:32
  TRACK 35 AUDIO
    TITLE "5:cjc150_3269"
    INDEX 01 01:12:15
  TRACK 36 AUDIO
    TITLE "5:cjc150_3270"
    INDEX 01 01:14:14
  TRACK 37 AUDIO
    TITLE "5:cjc150_3271"
    INDEX 01 01:16:03
  TRACK 38 AUDIO
    TITLE "5:cjc150_3272"
    INDEX 01 01:17:61
  TRACK 39 AUDIO
    TITLE "5:cjc150_3273"
    INDEX 01 01:20:44
  TRACK 40 AUDIO
    TITLE "5:cjc150_3274"
    INDEX 01 01:22:37
  TRACK 41 AUDIO
    TITLE "5:cjc150_3275"
    INDEX 01 01:24:30
  TRACK 42 AUDIO
    TITLE "5:cjc150_3276"
    INDEX 01 01:27:18
  TRACK 43 AUDIO
    TITLE "5:cjc150_3277"
    INDEX 01 01:29:72
  TRACK 44 AUDIO
    TITLE "5:cjc150_3278"
    INDEX 01 01:31:61
  TRACK 45 AUDIO
    TITLE "5:cjc150_3279"
    INDEX 01 01:33:42
  TRACK 46 AUDIO
    TITLE "5:cjc150_3280"
    INDEX 01 01:35:37
  TRACK 47 AUDIO
    TITLE "5:cjc150_3281"
    INDEX 01 01:38:18
  TRACK 48 AUDIO
    TITLE "5:cjc150_3282"
    INDEX 01 01:40:11
  TRACK 49 AUDIO
    TITLE "5:cjc150_3283"
    INDEX 01 01:42:04
  TRACK 50 AUDIO
    TITLE "5:cjc150_3284"
    INDEX 01 01:43:35
  TRACK 51 AUDIO
    TITLE "5:cjc150_3285"
    INDEX 01 01:45:57
  TRACK 52 AUDIO
    TITLE "5:cjc150_3286"
    INDEX 01 01:47:27
  TRACK 53 AUDIO
    TITLE "8:cjc150_3287"
    INDEX 01 01:48:65
  TRACK 54 AUDIO
    TITLE "0:"
    INDEX 01 01:51:48
  TRACK 55 AUDIO
    TITLE "6:cjc150_3288"
    INDEX 01 01:52:28
  TRACK 56 AUDIO
    TITLE "6:cjc150_3289"
    INDEX 01 01:54:66
  TRACK 57 AUDIO
    TITLE "6:cjc150_3290"
    INDEX 01 01:58:13
  TRACK 58 AUDIO
    TITLE "6:cjc150_3291"
    INDEX 01 02:00:51
  TRACK 59 AUDIO
    TITLE "6:cjc150_3292"
    INDEX 01 02:03:04
  TRACK 60 AUDIO
    TITLE "6:cjc150_3293"
    INDEX 01 02:04:55
  TRACK 61 AUDIO
    TITLE "6:cjc150_3294"
    INDEX 01 02:07:33
  TRACK 62 AUDIO
    TITLE "6:cjc150_3295"
    INDEX 01 02:09:22
  TRACK 63 AUDIO
    TITLE "6:cjc150_3296"
    INDEX 01 02:10:73
  TRACK 64 AUDIO
    TITLE "6:cjc150_3297"
    INDEX 01 02:15:25
  TRACK 65 AUDIO
    TITLE "6:cjc150_3298"
    INDEX 01 02:20:09
  TRACK 66 AUDIO
    TITLE "6:cjc150_3299"
    INDEX 01 02:24:06
  TRACK 67 AUDIO
    TITLE "8:cjc150_3300"
    INDEX 01 02:27:28
  TRACK 68 AUDIO
    TITLE "0:"
    INDEX 01 02:29:11
  TRACK 69 AUDIO
    TITLE "7:cjc150_3301"
    INDEX 01 02:29:66
  TRACK 70 AUDIO
    TITLE "7:cjc150_3302"
    INDEX 01 02:37:19
  TRACK 71 AUDIO
    TITLE "0:"
    INDEX 01 02:44:74
